<svg width="145" height="48" viewBox="0 0 145 48" fill="none" xmlns="http://www.w3.org/2000/svg">
<path d="M63.432 32C63.272 32 63.128 31.944 63 31.832C62.888 31.704 62.832 31.56 62.832 31.4V22.664H61.008C60.832 22.664 60.688 22.608 60.576 22.496C60.464 22.384 60.408 22.24 60.408 22.064V20.12C60.408 19.944 60.464 19.8 60.576 19.688C60.688 19.576 60.832 19.52 61.008 19.52H62.832V18.752C62.832 17.664 63.04 16.792 63.456 16.136C63.888 15.464 64.496 14.984 65.28 14.696C66.064 14.392 67 14.24 68.088 14.24H69.96C70.136 14.24 70.28 14.296 70.392 14.408C70.504 14.52 70.56 14.664 70.56 14.84V16.784C70.56 16.96 70.504 17.104 70.392 17.216C70.28 17.328 70.136 17.384 69.96 17.384H68.28C67.736 17.384 67.352 17.512 67.128 17.768C66.92 18.024 66.816 18.392 66.816 18.872V19.52H69.72C69.896 19.52 70.04 19.576 70.152 19.688C70.264 19.8 70.32 19.944 70.32 20.12V22.064C70.32 22.24 70.264 22.384 70.152 22.496C70.04 22.608 69.896 22.664 69.72 22.664H66.816V31.4C66.816 31.56 66.76 31.704 66.648 31.832C66.536 31.944 66.392 32 66.216 32H63.432Z" fill="#2D3339"/>
<path d="M72.6566 32C72.4806 32 72.3366 31.944 72.2246 31.832C72.1126 31.704 72.0566 31.56 72.0566 31.4V20.12C72.0566 19.96 72.1126 19.824 72.2246 19.712C72.3366 19.584 72.4806 19.52 72.6566 19.52H75.4166C75.5926 19.52 75.7366 19.584 75.8486 19.712C75.9766 19.824 76.0406 19.96 76.0406 20.12V21.08C76.4566 20.584 76.9606 20.2 77.5526 19.928C78.1606 19.656 78.8406 19.52 79.5926 19.52H80.6486C80.8246 19.52 80.9686 19.576 81.0806 19.688C81.1926 19.8 81.2486 19.944 81.2486 20.12V22.592C81.2486 22.752 81.1926 22.896 81.0806 23.024C80.9686 23.136 80.8246 23.192 80.6486 23.192H78.3206C77.6646 23.192 77.1526 23.376 76.7846 23.744C76.4326 24.096 76.2566 24.6 76.2566 25.256V31.4C76.2566 31.56 76.1926 31.704 76.0646 31.832C75.9526 31.944 75.8086 32 75.6326 32H72.6566Z" fill="#2D3339"/>
<path d="M88.6213 32.24C86.7333 32.24 85.2293 31.728 84.1093 30.704C82.9893 29.68 82.4053 28.16 82.3573 26.144C82.3573 26.032 82.3573 25.888 82.3573 25.712C82.3573 25.536 82.3573 25.4 82.3573 25.304C82.4053 24.04 82.6853 22.96 83.1973 22.064C83.7253 21.152 84.4453 20.464 85.3573 20C86.2853 19.52 87.3653 19.28 88.5973 19.28C90.0053 19.28 91.1653 19.56 92.0773 20.12C93.0053 20.68 93.7013 21.44 94.1653 22.4C94.6293 23.36 94.8613 24.456 94.8613 25.688V26.264C94.8613 26.44 94.8053 26.584 94.6933 26.696C94.5813 26.808 94.4373 26.864 94.2613 26.864H86.5813C86.5813 26.88 86.5813 26.904 86.5813 26.936C86.5813 26.968 86.5813 27 86.5813 27.032C86.5973 27.496 86.6773 27.92 86.8213 28.304C86.9813 28.688 87.2053 28.992 87.4933 29.216C87.7973 29.44 88.1653 29.552 88.5973 29.552C88.9173 29.552 89.1813 29.504 89.3893 29.408C89.6133 29.296 89.7973 29.176 89.9413 29.048C90.0853 28.904 90.1973 28.784 90.2773 28.688C90.4213 28.512 90.5333 28.408 90.6133 28.376C90.7093 28.328 90.8533 28.304 91.0453 28.304H94.0213C94.1813 28.304 94.3093 28.352 94.4053 28.448C94.5173 28.544 94.5653 28.672 94.5493 28.832C94.5333 29.104 94.3973 29.432 94.1413 29.816C93.8853 30.2 93.5093 30.584 93.0133 30.968C92.5333 31.336 91.9253 31.64 91.1893 31.88C90.4533 32.12 89.5973 32.24 88.6213 32.24ZM86.5813 24.488H90.6373V24.44C90.6373 23.912 90.5573 23.464 90.3973 23.096C90.2533 22.712 90.0213 22.416 89.7013 22.208C89.3973 22 89.0293 21.896 88.5973 21.896C88.1813 21.896 87.8213 22 87.5173 22.208C87.2133 22.416 86.9813 22.712 86.8213 23.096C86.6613 23.464 86.5813 23.912 86.5813 24.44V24.488Z" fill="#2D3339"/>
<path d="M102.871 32.24C100.983 32.24 99.4793 31.728 98.3593 30.704C97.2393 29.68 96.6553 28.16 96.6073 26.144C96.6073 26.032 96.6073 25.888 96.6073 25.712C96.6073 25.536 96.6073 25.4 96.6073 25.304C96.6553 24.04 96.9353 22.96 97.4473 22.064C97.9753 21.152 98.6953 20.464 99.6073 20C100.535 19.52 101.615 19.28 102.847 19.28C104.255 19.28 105.415 19.56 106.327 20.12C107.255 20.68 107.951 21.44 108.415 22.4C108.879 23.36 109.111 24.456 109.111 25.688V26.264C109.111 26.44 109.055 26.584 108.943 26.696C108.831 26.808 108.687 26.864 108.511 26.864H100.831C100.831 26.88 100.831 26.904 100.831 26.936C100.831 26.968 100.831 27 100.831 27.032C100.847 27.496 100.927 27.92 101.071 28.304C101.231 28.688 101.455 28.992 101.743 29.216C102.047 29.44 102.415 29.552 102.847 29.552C103.167 29.552 103.431 29.504 103.639 29.408C103.863 29.296 104.047 29.176 104.191 29.048C104.335 28.904 104.447 28.784 104.527 28.688C104.671 28.512 104.783 28.408 104.863 28.376C104.959 28.328 105.103 28.304 105.295 28.304H108.271C108.431 28.304 108.559 28.352 108.655 28.448C108.767 28.544 108.815 28.672 108.799 28.832C108.783 29.104 108.647 29.432 108.391 29.816C108.135 30.2 107.759 30.584 107.263 30.968C106.783 31.336 106.175 31.64 105.439 31.88C104.703 32.12 103.847 32.24 102.871 32.24ZM100.831 24.488H104.887V24.44C104.887 23.912 104.807 23.464 104.647 23.096C104.503 22.712 104.271 22.416 103.951 22.208C103.647 22 103.279 21.896 102.847 21.896C102.431 21.896 102.071 22 101.767 22.208C101.463 22.416 101.231 22.712 101.071 23.096C100.911 23.464 100.831 23.912 100.831 24.44V24.488Z" fill="#2D3339"/>
<path d="M111.961 32C111.785 32 111.641 31.944 111.529 31.832C111.417 31.704 111.361 31.56 111.361 31.4V15.56C111.361 15.384 111.417 15.24 111.529 15.128C111.641 15.016 111.785 14.96 111.961 14.96H114.793C114.969 14.96 115.113 15.016 115.225 15.128C115.337 15.24 115.393 15.384 115.393 15.56V31.4C115.393 31.56 115.337 31.704 115.225 31.832C115.113 31.944 114.969 32 114.793 32H111.961Z" fill="#2D3339"/>
<path d="M121.972 32.24C121.108 32.24 120.332 32.08 119.644 31.76C118.972 31.424 118.436 30.976 118.036 30.416C117.636 29.856 117.436 29.224 117.436 28.52C117.436 27.384 117.9 26.488 118.828 25.832C119.756 25.16 120.988 24.704 122.524 24.464L125.524 24.008V23.672C125.524 23.096 125.404 22.656 125.164 22.352C124.924 22.048 124.484 21.896 123.844 21.896C123.396 21.896 123.028 21.984 122.74 22.16C122.468 22.336 122.252 22.576 122.092 22.88C121.948 23.088 121.748 23.192 121.492 23.192H118.804C118.628 23.192 118.492 23.144 118.396 23.048C118.3 22.936 118.26 22.808 118.276 22.664C118.276 22.376 118.38 22.048 118.588 21.68C118.812 21.296 119.148 20.92 119.596 20.552C120.044 20.184 120.62 19.88 121.324 19.64C122.028 19.4 122.884 19.28 123.892 19.28C124.916 19.28 125.796 19.4 126.532 19.64C127.268 19.88 127.868 20.216 128.332 20.648C128.796 21.08 129.132 21.592 129.34 22.184C129.564 22.76 129.676 23.4 129.676 24.104V31.4C129.676 31.56 129.612 31.704 129.484 31.832C129.372 31.944 129.236 32 129.076 32H126.292C126.116 32 125.972 31.944 125.86 31.832C125.748 31.704 125.692 31.56 125.692 31.4V30.56C125.484 30.864 125.204 31.144 124.852 31.4C124.5 31.656 124.084 31.856 123.604 32C123.14 32.16 122.596 32.24 121.972 32.24ZM123.1 29.504C123.564 29.504 123.98 29.408 124.348 29.216C124.732 29.008 125.028 28.696 125.236 28.28C125.46 27.848 125.572 27.312 125.572 26.672V26.336L123.532 26.696C122.78 26.824 122.228 27.024 121.876 27.296C121.54 27.552 121.372 27.856 121.372 28.208C121.372 28.48 121.452 28.712 121.612 28.904C121.772 29.096 121.98 29.248 122.236 29.36C122.508 29.456 122.796 29.504 123.1 29.504Z" fill="#2D3339"/>
<path d="M137.521 32.24C136.481 32.24 135.593 32.128 134.857 31.904C134.137 31.664 133.545 31.376 133.081 31.04C132.633 30.704 132.297 30.36 132.073 30.008C131.849 29.64 131.729 29.32 131.713 29.048C131.697 28.872 131.753 28.728 131.881 28.616C132.009 28.504 132.145 28.448 132.289 28.448H135.025C135.073 28.448 135.113 28.456 135.145 28.472C135.193 28.488 135.241 28.52 135.289 28.568C135.497 28.68 135.705 28.824 135.913 29C136.121 29.16 136.361 29.304 136.633 29.432C136.905 29.56 137.233 29.624 137.617 29.624C138.065 29.624 138.441 29.536 138.745 29.36C139.049 29.168 139.201 28.904 139.201 28.568C139.201 28.312 139.129 28.104 138.985 27.944C138.841 27.768 138.545 27.6 138.097 27.44C137.665 27.28 137.009 27.12 136.129 26.96C135.297 26.768 134.569 26.52 133.945 26.216C133.321 25.896 132.841 25.488 132.505 24.992C132.169 24.48 132.001 23.864 132.001 23.144C132.001 22.504 132.209 21.888 132.625 21.296C133.041 20.704 133.649 20.224 134.449 19.856C135.249 19.472 136.241 19.28 137.425 19.28C138.337 19.28 139.137 19.392 139.825 19.616C140.513 19.824 141.089 20.096 141.553 20.432C142.017 20.768 142.369 21.112 142.609 21.464C142.849 21.816 142.977 22.136 142.993 22.424C143.009 22.584 142.961 22.728 142.849 22.856C142.737 22.968 142.609 23.024 142.465 23.024H139.969C139.905 23.024 139.841 23.016 139.777 23C139.713 22.968 139.657 22.936 139.609 22.904C139.417 22.808 139.225 22.68 139.033 22.52C138.841 22.36 138.617 22.216 138.361 22.088C138.105 21.96 137.785 21.896 137.401 21.896C136.969 21.896 136.633 21.992 136.393 22.184C136.153 22.376 136.033 22.624 136.033 22.928C136.033 23.136 136.097 23.328 136.225 23.504C136.369 23.68 136.649 23.84 137.065 23.984C137.497 24.128 138.161 24.288 139.057 24.464C140.161 24.64 141.041 24.928 141.697 25.328C142.353 25.712 142.817 26.168 143.089 26.696C143.377 27.208 143.521 27.752 143.521 28.328C143.521 29.096 143.289 29.776 142.825 30.368C142.361 30.96 141.681 31.424 140.785 31.76C139.905 32.08 138.817 32.24 137.521 32.24Z" fill="#2D3339"/>
<path d="M0 16C0 7.16344 7.16344 0 16 0H32C40.8366 0 48 7.16344 48 16V32C48 40.8366 40.8366 48 32 48H16C7.16344 48 0 40.8366 0 32V16Z" fill="#2D3339"/>
<path fill-rule="evenodd" clip-rule="evenodd" d="M28 24C28 21.7909 26.2091 20 24 20C21.7909 20 20 21.7909 20 24C20 26.2091 21.7909 28 24 28C26.2091 28 28 26.2091 28 24ZM24 36C17.3726 36 12 30.6274 12 24C12 17.3726 17.3726 12 24 12C30.6274 12 36 17.3726 36 24C36 30.6274 30.6274 36 24 36Z" fill="#FCFCFC"/>
</svg>
